<svg width="2839.15" xmlns="http://www.w3.org/2000/svg" height="2831.196" viewBox="232.354 234 2839.15 2831.196" fill="none"><g data-testid="Path"><path d="M358 234H233s-1.983 121.826 1 125c382.18 406.609 598.982 539.344 975 541 454 2 882.477-266.195 1844-541 3.558-.983 0-125 0-125h-122c-956 289-1325.516 503.053-1716.401 531.271C975 774 722 640 358 234Zm1238 1358c1 81-1 122-1 122h124c230-108 429-144 542-144 409 22 676 308.875 676 587-68 549-788 826-1679 775h-110v125c1024 57 1899-177 1923-901 17-516-399-719-807-713-258-6-512.531 64.234-668 149Z" style="fill: rgb(0, 0, 0); fill-opacity: 1;" class="fills"/><g class="strokes"><g class="inner-stroke-shape"><defs><clipPath id="b"><use href="#a"/></clipPath><path d="M358 234H233s-1.983 121.826 1 125c382.18 406.609 598.982 539.344 975 541 454 2 882.477-266.195 1844-541 3.558-.983 0-125 0-125h-122c-956 289-1325.516 503.053-1716.401 531.271C975 774 722 640 358 234Zm1238 1358c1 81-1 122-1 122h124c230-108 429-144 542-144 409 22 676 308.875 676 587-68 549-788 826-1679 775h-110v125c1024 57 1899-177 1923-901 17-516-399-719-807-713-258-6-512.531 64.234-668 149Z" id="a" style="fill: none; stroke-width: 4; stroke: rgb(0, 0, 0); stroke-opacity: 1;"/></defs><use href="#a" clip-path="url('#b')"/></g></g></g></svg>