<svg width="2831.669" xmlns="http://www.w3.org/2000/svg" height="2839.15" fill="none"><g data-testid="Group"><g data-testid="7"><path d="M2831.196 125.646v-125s-121.826-1.983-125 1c-406.61 382.18-539.344 598.983-541 975-2 454 266.195 882.477 541 1844 .983 3.558 125 0 125 0v-122c-289-956-503.054-1325.516-531.271-1716.401-8.729-239.599 125.271-492.599 531.271-856.599Zm-1358 1238c-81 1-122-1-122-1v124c108 230 144 429 144 542-22 409-308.875 676-587 676-549-68-826-788-775-1679v-110h-125c-57 1024 177 1899 901 1923 516 17 719-399 713-807 6-258-64.235-512.531-149-668Z" style="fill: rgb(0, 0, 0); fill-opacity: 1;" class="fills"/><g class="strokes"><g class="inner-stroke-shape"><defs><clipPath id="b"><use href="#a"/></clipPath><path d="M2831.196 125.646v-125s-121.826-1.983-125 1c-406.61 382.18-539.344 598.983-541 975-2 454 266.195 882.477 541 1844 .983 3.558 125 0 125 0v-122c-289-956-503.054-1325.516-531.271-1716.401-8.729-239.599 125.271-492.599 531.271-856.599Zm-1358 1238c-81 1-122-1-122-1v124c108 230 144 429 144 542-22 409-308.875 676-587 676-549-68-826-788-775-1679v-110h-125c-57 1024 177 1899 901 1923 516 17 719-399 713-807 6-258-64.235-512.531-149-668Z" id="a" style="fill: none; stroke-width: 4; stroke: rgb(0, 0, 0); stroke-opacity: 1;"/></defs><use href="#a" clip-path="url('#b')"/></g></g></g><g data-testid="3"><path d="M276.669 2022.977h125l630-1889v-124h-125l-630 1892v121Zm631 807h124l446-1340v-123h-122l-448 1345v118Zm900 0h125l899-2700v-120h-123l-901 2704v116Z" style="fill: rgb(0, 0, 0); fill-opacity: 1;" class="fills"/><g class="strokes"><g class="inner-stroke-shape"><defs><clipPath id="d"><use href="#c"/></clipPath><path d="M276.669 2022.977h125l630-1889v-124h-125l-630 1892v121Zm631 807h124l446-1340v-123h-122l-448 1345v118Zm900 0h125l899-2700v-120h-123l-901 2704v116Z" id="c" style="fill: none; stroke-width: 4; stroke: rgb(0, 0, 0); stroke-opacity: 1;"/></defs><use href="#c" clip-path="url('#d')"/></g></g></g></g></svg>