<svg width="2847.322" xmlns="http://www.w3.org/2000/svg" height="2839.15" fill="none"><g data-testid="Group"><g data-testid="7"><path d="M2831.527 125.646v-125s-121.826-1.983-125 1c-406.61 382.18-539.344 598.983-541 975-2 454 266.195 882.477 541 1844 .983 3.558 125 0 125 0v-122c-289-956-503.054-1325.516-531.271-1716.401-8.729-239.599 125.271-492.599 531.271-856.599Zm-1358 1238c-81 1-122-1-122-1v124c108 230 144 429 144 542-22 409-308.875 676-587 676-549-68-826-788-775-1679v-110h-125c-57 1024 177 1899 901 1923 516 17 719-399 713-807 6-258-64.235-512.531-149-668Z" style="fill: rgb(0, 0, 0); fill-opacity: 1;" class="fills"/><g class="strokes"><g class="inner-stroke-shape"><defs><clipPath id="b"><use href="#a"/></clipPath><path d="M2831.527 125.646v-125s-121.826-1.983-125 1c-406.61 382.18-539.344 598.983-541 975-2 454 266.195 882.477 541 1844 .983 3.558 125 0 125 0v-122c-289-956-503.054-1325.516-531.271-1716.401-8.729-239.599 125.271-492.599 531.271-856.599Zm-1358 1238c-81 1-122-1-122-1v124c108 230 144 429 144 542-22 409-308.875 676-587 676-549-68-826-788-775-1679v-110h-125c-57 1024 177 1899 901 1923 516 17 719-399 713-807 6-258-64.235-512.531-149-668Z" id="a" style="fill: none; stroke-width: 4; stroke: rgb(0, 0, 0); stroke-opacity: 1;"/></defs><use href="#a" clip-path="url('#b')"/></g></g></g><g data-testid="Path"><path d="M0 1212.139v125h117c655-8 194-862 593-953 90 6 253 211 412 564 330 701 711 1814 1083 1883 48 8 75.719 8.36 118 7 25.827-.966 47-1 84-1 254-41 330-301 393.057-608.451C2887 1678.139 2826.5 544.639 2831 465.139c-8.5 0-93 1-124.5 0 .5 342 17.527 970.523 8.5 1188-22 530-107 985-393 1054-536-126-954-2035-1436-2420-55.396-44.248-128.716-34.834-180-36-251.625-5.719-314 140-322 448-6.731 259.146-40.625 520.328-384 513Zm0 0" style="fill: rgb(0, 0, 0); fill-opacity: 1;" class="fills"/><g class="strokes"><g class="inner-stroke-shape"><defs><clipPath id="d"><use href="#c"/></clipPath><path d="M0 1212.139v125h117c655-8 194-862 593-953 90 6 253 211 412 564 330 701 711 1814 1083 1883 48 8 75.719 8.36 118 7 25.827-.966 47-1 84-1 254-41 330-301 393.057-608.451C2887 1678.139 2826.5 544.639 2831 465.139c-8.5 0-93 1-124.5 0 .5 342 17.527 970.523 8.5 1188-22 530-107 985-393 1054-536-126-954-2035-1436-2420-55.396-44.248-128.716-34.834-180-36-251.625-5.719-314 140-322 448-6.731 259.146-40.625 520.328-384 513Zm0 0" id="c" style="fill: none; stroke-width: 4; stroke: rgb(0, 0, 0); stroke-opacity: 1;"/></defs><use href="#c" clip-path="url('#d')"/></g></g></g></g></svg>