<svg width="2839.65" xmlns="http://www.w3.org/2000/svg" height="2831.696" fill="none"><g data-testid="Group"><g data-testid="14"><path d="M8 0v125l2510 834L4 1797v126l1164 386L0 2698v124h124l1348-450v-124L306 1861l2517-840V899L129 0H8Z" style="fill: rgb(0, 0, 0); fill-opacity: 1;" class="fills"/><g class="strokes"><g class="inner-stroke-shape"><defs><clipPath id="b"><use href="#a"/></clipPath><path d="M8 0v125l2510 834L4 1797v126l1164 386L0 2698v124h124l1348-450v-124L306 1861l2517-840V899L129 0H8Z" id="a" style="fill: none; stroke-width: 4; stroke: rgb(0, 0, 0); stroke-opacity: 1;"/></defs><use href="#a" clip-path="url('#b')"/></g></g></g><g data-testid="1"><path d="M126.146.5h-125s-1.983 121.826 1 125c382.18 406.609 598.983 539.344 975 541 454 2 882.477-266.195 1844-541 3.558-.983 0-125 0-125h-122c-956 289-1325.516 503.053-1716.401 531.271C743.146 540.5 490.146 406.5 126.146.5Zm1238 1358c1 81-1 122-1 122h124c230-108 429-144 542-144 409 22 676 308.875 676 587-68 549-788 826-1679 775h-110v125c1024 57 1899-177 1923-901 17-516-399-719-807-713-258-6-512.531 64.234-668 149Z" style="fill: rgb(0, 0, 0); fill-opacity: 1;" class="fills"/><g class="strokes"><g class="inner-stroke-shape"><defs><clipPath id="d"><use href="#c"/></clipPath><path d="M126.146.5h-125s-1.983 121.826 1 125c382.18 406.609 598.983 539.344 975 541 454 2 882.477-266.195 1844-541 3.558-.983 0-125 0-125h-122c-956 289-1325.516 503.053-1716.401 531.271C743.146 540.5 490.146 406.5 126.146.5Zm1238 1358c1 81-1 122-1 122h124c230-108 429-144 542-144 409 22 676 308.875 676 587-68 549-788 826-1679 775h-110v125c1024 57 1899-177 1923-901 17-516-399-719-807-713-258-6-512.531 64.234-668 149Z" id="c" style="fill: none; stroke-width: 4; stroke: rgb(0, 0, 0); stroke-opacity: 1;"/></defs><use href="#c" clip-path="url('#d')"/></g></g></g></g></svg>