<svg width="2839.65" xmlns="http://www.w3.org/2000/svg" height="2832.196" fill="none"><g data-testid="Group"><g data-testid="14"><path d="M8 .5v125l2510 834-2514 838v126l1164 386-1168 389v124h124l1348-450v-124l-1166-387 2517-840v-122L129 .5H8Z" style="fill: rgb(0, 0, 0); fill-opacity: 1;" class="fills"/><g class="strokes"><g class="inner-stroke-shape"><defs><clipPath id="b"><use href="#a"/></clipPath><path d="M8 .5v125l2510 834-2514 838v126l1164 386-1168 389v124h124l1348-450v-124l-1166-387 2517-840v-122L129 .5H8Z" id="a" style="fill: none; stroke-width: 4; stroke: rgb(0, 0, 0); stroke-opacity: 1;"/></defs><use href="#a" clip-path="url('#b')"/></g></g></g><g data-testid="2"><path d="M.5 2815h125l834-2510 838 2514h126l386-1164 389 1168h124v-124l-450-1348h-124l-387 1166-840-2517h-122L.5 2694v121Z" style="fill: rgb(0, 0, 0); fill-opacity: 1;" class="fills"/><g class="strokes"><g class="inner-stroke-shape"><defs><clipPath id="d"><use href="#c"/></clipPath><path d="M.5 2815h125l834-2510 838 2514h126l386-1164 389 1168h124v-124l-450-1348h-124l-387 1166-840-2517h-122L.5 2694v121Z" id="c" style="fill: none; stroke-width: 4; stroke: rgb(0, 0, 0); stroke-opacity: 1;"/></defs><use href="#c" clip-path="url('#d')"/></g></g></g></g></svg>