<svg width="2823.5" xmlns="http://www.w3.org/2000/svg" height="2822.5" fill="none"><g data-testid="Group"><g data-testid="14"><path d="M8 .5v125l2510 834-2514 838v126l1164 386-1168 389v124h124l1348-450v-124l-1166-387 2517-840v-122L129 .5H8Z" style="fill: rgb(0, 0, 0); fill-opacity: 1;" class="fills"/><g class="strokes"><g class="inner-stroke-shape"><defs><clipPath id="b"><use href="#a"/></clipPath><path d="M8 .5v125l2510 834-2514 838v126l1164 386-1168 389v124h124l1348-450v-124l-1166-387 2517-840v-122L129 .5H8Z" id="a" style="fill: none; stroke-width: 4; stroke: rgb(0, 0, 0); stroke-opacity: 1;"/></defs><use href="#a" clip-path="url('#b')"/></g></g></g><g data-testid="3"><path d="M268.5 2013h125l630-1889V0h-125l-630 1892v121Zm631 807h124l446-1340v-123h-122l-448 1345v118Zm900 0h125l899-2700V0h-123l-901 2704v116Z" style="fill: rgb(0, 0, 0); fill-opacity: 1;" class="fills"/><g class="strokes"><g class="inner-stroke-shape"><defs><clipPath id="d"><use href="#c"/></clipPath><path d="M268.5 2013h125l630-1889V0h-125l-630 1892v121Zm631 807h124l446-1340v-123h-122l-448 1345v118Zm900 0h125l899-2700V0h-123l-901 2704v116Z" id="c" style="fill: none; stroke-width: 4; stroke: rgb(0, 0, 0); stroke-opacity: 1;"/></defs><use href="#c" clip-path="url('#d')"/></g></g></g></g></svg>