<svg width="2855.15" xmlns="http://www.w3.org/2000/svg" height="2832.196" fill="none"><g data-testid="Group"><g data-testid="14"><path d="M23.5.5v125l2510 834-2514 838v126l1164 386-1168 389v124h124l1348-450v-124l-1166-387 2517-840v-122L144.5.5h-121Z" style="fill: rgb(0, 0, 0); fill-opacity: 1;" class="fills"/><g class="strokes"><g class="inner-stroke-shape"><defs><clipPath id="b"><use href="#a"/></clipPath><path d="M23.5.5v125l2510 834-2514 838v126l1164 386-1168 389v124h124l1348-450v-124l-1166-387 2517-840v-122L144.5.5h-121Z" id="a" style="fill: none; stroke-width: 4; stroke: rgb(0, 0, 0); stroke-opacity: 1;"/></defs><use href="#a" clip-path="url('#b')"/></g></g></g><g data-testid="4"><path d="M0 1196.162v125h117c655-8 194-862 593-953 90 6 253 211 412 564 330 701 711 1814 1083 1883 48 8 75.719 8.359 118 7 25.827-.967 47-1 84-1 254-41 330-301 393.057-608.452C2887 1662.162 2826.5 528.662 2831 449.162c-8.5 0-93 1-124.5 0 .5 342 17.527 970.522 8.5 1188-22 530-107 985-393 1054-536-126-954-2035-1436-2420-55.396-44.248-128.716-34.835-180-36-251.625-5.719-314 140-322 448-6.731 259.146-40.625 520.328-384 513Zm0 0" style="fill: rgb(0, 0, 0); fill-opacity: 1;" class="fills"/><g class="strokes"><g class="inner-stroke-shape"><defs><clipPath id="f"><use href="#e"/></clipPath><path d="M0 1196.162v125h117c655-8 194-862 593-953 90 6 253 211 412 564 330 701 711 1814 1083 1883 48 8 75.719 8.359 118 7 25.827-.967 47-1 84-1 254-41 330-301 393.057-608.452C2887 1662.162 2826.5 528.662 2831 449.162c-8.5 0-93 1-124.5 0 .5 342 17.527 970.522 8.5 1188-22 530-107 985-393 1054-536-126-954-2035-1436-2420-55.396-44.248-128.716-34.835-180-36-251.625-5.719-314 140-322 448-6.731 259.146-40.625 520.328-384 513Zm0 0" id="e" style="fill: none; stroke-width: 4; stroke: rgb(0, 0, 0); stroke-opacity: 1;"/></defs><use href="#e" clip-path="url('#f')"/></g></g></g></g></svg>