<svg width="2855.15" xmlns="http://www.w3.org/2000/svg" height="2832.196" fill="none"><g data-testid="Group"><g data-testid="14"><path d="M23.5.5v125l2510 834-2514 838v126l1164 386-1168 389v124h124l1348-450v-124l-1166-387 2517-840v-122L144.5.5h-121Z" style="fill: rgb(0, 0, 0); fill-opacity: 1;" class="fills"/><g class="strokes"><g class="inner-stroke-shape"><defs><clipPath id="b"><use href="#a"/></clipPath><path d="M23.5.5v125l2510 834-2514 838v126l1164 386-1168 389v124h124l1348-450v-124l-1166-387 2517-840v-122L144.5.5h-121Z" id="a" style="fill: none; stroke-width: 4; stroke: rgb(0, 0, 0); stroke-opacity: 1;"/></defs><use href="#a" clip-path="url('#b')"/></g></g></g><g data-testid="5"><path d="M15 2823h124s1181-1245 2104-1287c455 54 468 343 468 343s-17 489-880 510c1 46 0 124 0 124h92c743 8 923-402 920-563 0-50.657 3.882-86.164 0-132-26-307-291-408-608-408C1268 1367 15 2700 15 2700v123ZM420 751c-1.417 222.455 199 346 324 340 161 6 356-127 348-345 3-144-125-329-335-329-219 6-336 177-337 334Zm333-486c309-3 489 267 492 481-3.08 335.042-269 498-501 498-199-8-460-160-479-489 14-280 210-474 488-490Z" style="fill: rgb(0, 0, 0); fill-opacity: 1;" class="fills"/><g class="strokes"><g class="inner-stroke-shape"><defs><clipPath id="f"><use href="#e"/></clipPath><path d="M15 2823h124s1181-1245 2104-1287c455 54 468 343 468 343s-17 489-880 510c1 46 0 124 0 124h92c743 8 923-402 920-563 0-50.657 3.882-86.164 0-132-26-307-291-408-608-408C1268 1367 15 2700 15 2700v123ZM420 751c-1.417 222.455 199 346 324 340 161 6 356-127 348-345 3-144-125-329-335-329-219 6-336 177-337 334Zm333-486c309-3 489 267 492 481-3.08 335.042-269 498-501 498-199-8-460-160-479-489 14-280 210-474 488-490Z" id="e" style="fill: none; stroke-width: 4; stroke: rgb(0, 0, 0); stroke-opacity: 1;"/></defs><use href="#e" clip-path="url('#f')"/></g></g></g></g></svg>