<svg width="2865" xmlns="http://www.w3.org/2000/svg" height="2832.196" fill="none"><g data-testid="Group"><g data-testid="14"><path d="M23.5.5v125l2510 834-2514 838v126l1164 386-1168 389v124h124l1348-450v-124l-1166-387 2517-840v-122L144.5.5h-121Z" style="fill: rgb(0, 0, 0); fill-opacity: 1;" class="fills"/><g class="strokes"><g class="inner-stroke-shape"><defs><clipPath id="b"><use href="#a"/></clipPath><path d="M23.5.5v125l2510 834-2514 838v126l1164 386-1168 389v124h124l1348-450v-124l-1166-387 2517-840v-122L144.5.5h-121Z" id="a" style="fill: none; stroke-width: 4; stroke: rgb(0, 0, 0); stroke-opacity: 1;"/></defs><use href="#a" clip-path="url('#b')"/></g></g></g><g data-testid="6"><path d="M15 1785v150h2850v-150H15Zm0 449v150h2850v-150H15Z" style="fill: rgb(0, 0, 0); fill-opacity: 1;" class="fills"/><g class="strokes"><g class="inner-stroke-shape"><defs><clipPath id="f"><use href="#e"/></clipPath><path d="M15 1785v150h2850v-150H15Zm0 449v150h2850v-150H15Z" id="e" style="fill: none; stroke-width: 4; stroke: rgb(0, 0, 0); stroke-opacity: 1;"/></defs><use href="#e" clip-path="url('#f')"/></g></g></g></g></svg>