<svg width="2860" xmlns="http://www.w3.org/2000/svg" height="2831.5" fill="none"><path d="M816.5 276.5v125l1889 630h124v-125l-1892-630h-121Zm-807 631v124l1340 446h123v-122l-1345-448H9.5Zm0 900v125l2700 899h120v-123l-2704-901H9.5Z" style="fill: rgb(0, 0, 0); fill-opacity: 1;" class="fills"/><g class="strokes"><g class="inner-stroke-shape"><defs><clipPath id="b"><use href="#a"/></clipPath><path d="M816.5 276.5v125l1889 630h124v-125l-1892-630h-121Zm-807 631v124l1340 446h123v-122l-1345-448H9.5Zm0 900v125l2700 899h120v-123l-2704-901H9.5Z" id="a" style="fill: none; stroke-width: 4; stroke: rgb(0, 0, 0); stroke-opacity: 1;"/></defs><use href="#a" clip-path="url('#b')"/></g></g><path d="M125.646 0h-125s-1.983 121.826 1 125c382.18 406.609 598.983 539.344 975 541 454 2 882.477-266.195 1844-541 3.558-.983 0-125 0-125h-122c-956 289-1325.516 503.053-1716.401 531.271C742.646 540 489.646 406 125.646 0Zm1238 1358c1 81-1 122-1 122h124c230-108 429-144 542-144 409 22 676 308.875 676 587-68 549-788 826-1679 775h-110v125c1024 57 1899-177 1923-901 17-516-399-719-807-713-258-6-512.531 64.234-668 149Z" style="fill: rgb(0, 0, 0); fill-opacity: 1;" class="fills"/><g class="strokes"><g class="inner-stroke-shape"><defs><clipPath id="f"><use href="#e"/></clipPath><path d="M125.646 0h-125s-1.983 121.826 1 125c382.18 406.609 598.983 539.344 975 541 454 2 882.477-266.195 1844-541 3.558-.983 0-125 0-125h-122c-956 289-1325.516 503.053-1716.401 531.271C742.646 540 489.646 406 125.646 0Zm1238 1358c1 81-1 122-1 122h124c230-108 429-144 542-144 409 22 676 308.875 676 587-68 549-788 826-1679 775h-110v125c1024 57 1899-177 1923-901 17-516-399-719-807-713-258-6-512.531 64.234-668 149Z" id="e" style="fill: none; stroke-width: 4; stroke: rgb(0, 0, 0); stroke-opacity: 1;"/></defs><use href="#e" clip-path="url('#f')"/></g></g></svg>