<svg width="2820" xmlns="http://www.w3.org/2000/svg" height="2826.5" fill="none"><g data-testid="Group"><g data-testid="3"><path d="M807 271.5v125l1889 630h124v-125l-1892-630H807ZM0 902.5v124l1340 446h123v-122l-1345-448H0Zm0 900v125l2700 899h120v-123l-2704-901H0Z" style="fill: rgb(0, 0, 0); fill-opacity: 1;" class="fills"/><g class="strokes"><g class="inner-stroke-shape"><defs><clipPath id="b"><use href="#a"/></clipPath><path d="M807 271.5v125l1889 630h124v-125l-1892-630H807ZM0 902.5v124l1340 446h123v-122l-1345-448H0Zm0 900v125l2700 899h120v-123l-2704-901H0Z" id="a" style="fill: none; stroke-width: 4; stroke: rgb(0, 0, 0); stroke-opacity: 1;"/></defs><use href="#a" clip-path="url('#b')"/></g></g></g><g data-testid="3"><path d="M261.5 2013h125l630-1889V0h-125l-630 1892v121Zm631 807h124l446-1340v-123h-122l-448 1345v118Zm900 0h125l899-2700V0h-123l-901 2704v116Z" style="fill: rgb(0, 0, 0); fill-opacity: 1;" class="fills"/><g class="strokes"><g class="inner-stroke-shape"><defs><clipPath id="d"><use href="#c"/></clipPath><path d="M261.5 2013h125l630-1889V0h-125l-630 1892v121Zm631 807h124l446-1340v-123h-122l-448 1345v118Zm900 0h125l899-2700V0h-123l-901 2704v116Z" id="c" style="fill: none; stroke-width: 4; stroke: rgb(0, 0, 0); stroke-opacity: 1;"/></defs><use href="#c" clip-path="url('#d')"/></g></g></g></g></svg>