<svg width="2850.5" xmlns="http://www.w3.org/2000/svg" height="2826.5" fill="none"><g data-testid="Group"><g data-testid="3"><path d="M807 271.5v125l1889 630h124v-125l-1892-630H807ZM0 902.5v124l1340 446h123v-122l-1345-448H0Zm0 900v125l2700 899h120v-123l-2704-901H0Z" style="fill: rgb(0, 0, 0); fill-opacity: 1;" class="fills"/><g class="strokes"><g class="inner-stroke-shape"><defs><clipPath id="b"><use href="#a"/></clipPath><path d="M807 271.5v125l1889 630h124v-125l-1892-630H807ZM0 902.5v124l1340 446h123v-122l-1345-448H0Zm0 900v125l2700 899h120v-123l-2704-901H0Z" id="a" style="fill: none; stroke-width: 4; stroke: rgb(0, 0, 0); stroke-opacity: 1;"/></defs><use href="#a" clip-path="url('#b')"/></g></g></g><g data-testid="Path"><path d="M.5 1803v150h2850v-150H.5Zm0 449v150h2850v-150H.5Z" style="fill: rgb(0, 0, 0); fill-opacity: 1;" class="fills"/><g class="strokes"><g class="inner-stroke-shape"><defs><clipPath id="f"><use href="#e"/></clipPath><path d="M.5 1803v150h2850v-150H.5Zm0 449v150h2850v-150H.5Z" id="e" style="fill: none; stroke-width: 4; stroke: rgb(0, 0, 0); stroke-opacity: 1;"/></defs><use href="#e" clip-path="url('#f')"/></g></g></g></g></svg>