<svg width="2555" xmlns="http://www.w3.org/2000/svg" height="2820" viewBox="-139 -769 2555 2820" fill="none"><g data-testid="3"><path d="M-139 1244h125L616-645v-124H491l-630 1892v121Zm631 807h124l446-1340V588H940L492 1933v118Zm900 0h125l899-2700v-120h-123l-901 2704v116Z" style="fill: rgb(0, 0, 0); fill-opacity: 1;" class="fills"/><g class="strokes"><g class="inner-stroke-shape"><defs><clipPath id="b"><use href="#a"/></clipPath><path d="M-139 1244h125L616-645v-124H491l-630 1892v121Zm631 807h124l446-1340V588H940L492 1933v118Zm900 0h125l899-2700v-120h-123l-901 2704v116Z" id="a" style="fill: none; stroke-width: 4; stroke: rgb(0, 0, 0); stroke-opacity: 1;"/></defs><use href="#a" clip-path="url('#b')"/></g></g></g></svg>