<svg width="2847.322" xmlns="http://www.w3.org/2000/svg" height="2847.771" fill="none"><g data-testid="Group"><g data-testid="Path"><path d="M1626.609 0h-125v117c8 655 862 194 953 593-6 90-211 253-564 412-701 330-1814 711-1883 1083-8 48-8.36 75.719-7 118 .966 25.827 1 47 1 84 41 254 301 330 608.451 393.057C1160.609 2887 2294.109 2826.5 2373.609 2831c0-8.5-1-93 0-124.5-342 .5-970.523 17.527-1188 8.5-530-22-985-107-1054-393 126-536 2035-954 2420-1436 44.248-55.396 34.834-128.716 36-180 5.718-251.625-140-314-448-322-259.146-6.731-520.328-40.625-513-384Zm0 0" style="fill: rgb(0, 0, 0); fill-opacity: 1;" class="fills"/><g class="strokes"><g class="inner-stroke-shape"><defs><clipPath id="b"><use href="#a"/></clipPath><path d="M1626.609 0h-125v117c8 655 862 194 953 593-6 90-211 253-564 412-701 330-1814 711-1883 1083-8 48-8.36 75.719-7 118 .966 25.827 1 47 1 84 41 254 301 330 608.451 393.057C1160.609 2887 2294.109 2826.5 2373.609 2831c0-8.5-1-93 0-124.5-342 .5-970.523 17.527-1188 8.5-530-22-985-107-1054-393 126-536 2035-954 2420-1436 44.248-55.396 34.834-128.716 36-180 5.718-251.625-140-314-448-322-259.146-6.731-520.328-40.625-513-384Zm0 0" id="a" style="fill: none; stroke-width: 4; stroke: rgb(0, 0, 0); stroke-opacity: 1;"/></defs><use href="#a" clip-path="url('#b')"/></g></g></g><g data-testid="Path"><path d="M0 1221.162v125h117c655-8 194-862 593-953 90 6 253 211 412 564 330 701 711 1814 1083 1883 48 8 75.719 8.359 118 7 25.827-.967 47-1 84-1 254-41 330-301 393.057-608.452C2887 1687.162 2826.5 553.662 2831 474.162c-8.5 0-93 1-124.5 0 .5 342 17.527 970.522 8.5 1188-22 530-107 985-393 1054-536-126-954-2035-1436-2420-55.396-44.248-128.716-34.835-180-36-251.625-5.719-314 140-322 448-6.731 259.146-40.625 520.328-384 513Zm0 0" style="fill: rgb(0, 0, 0); fill-opacity: 1;" class="fills"/><g class="strokes"><g class="inner-stroke-shape"><defs><clipPath id="d"><use href="#c"/></clipPath><path d="M0 1221.162v125h117c655-8 194-862 593-953 90 6 253 211 412 564 330 701 711 1814 1083 1883 48 8 75.719 8.359 118 7 25.827-.967 47-1 84-1 254-41 330-301 393.057-608.452C2887 1687.162 2826.5 553.662 2831 474.162c-8.5 0-93 1-124.5 0 .5 342 17.527 970.522 8.5 1188-22 530-107 985-393 1054-536-126-954-2035-1436-2420-55.396-44.248-128.716-34.835-180-36-251.625-5.719-314 140-322 448-6.731 259.146-40.625 520.328-384 513Zm0 0" id="c" style="fill: none; stroke-width: 4; stroke: rgb(0, 0, 0); stroke-opacity: 1;"/></defs><use href="#c" clip-path="url('#d')"/></g></g></g></g></svg>