<svg width="2850" xmlns="http://www.w3.org/2000/svg" height="2847.322" fill="none"><g data-testid="Group"><g data-testid="Path"><path d="M1626.609 0h-125v117c8 655 862 194 953 593-6 90-211 253-564 412-701 330-1814 711-1883 1083-8 48-8.36 75.719-7 118 .966 25.827 1 47 1 84 41 254 301 330 608.451 393.057C1160.609 2887 2294.109 2826.5 2373.609 2831c0-8.5-1-93 0-124.5-342 .5-970.523 17.527-1188 8.5-530-22-985-107-1054-393 126-536 2035-954 2420-1436 44.248-55.396 34.834-128.716 36-180 5.718-251.625-140-314-448-322-259.146-6.731-520.328-40.625-513-384Zm0 0" style="fill: rgb(0, 0, 0); fill-opacity: 1;" class="fills"/><g class="strokes"><g class="inner-stroke-shape"><defs><clipPath id="b"><use href="#a"/></clipPath><path d="M1626.609 0h-125v117c8 655 862 194 953 593-6 90-211 253-564 412-701 330-1814 711-1883 1083-8 48-8.36 75.719-7 118 .966 25.827 1 47 1 84 41 254 301 330 608.451 393.057C1160.609 2887 2294.109 2826.5 2373.609 2831c0-8.5-1-93 0-124.5-342 .5-970.523 17.527-1188 8.5-530-22-985-107-1054-393 126-536 2035-954 2420-1436 44.248-55.396 34.834-128.716 36-180 5.718-251.625-140-314-448-322-259.146-6.731-520.328-40.625-513-384Zm0 0" id="a" style="fill: none; stroke-width: 4; stroke: rgb(0, 0, 0); stroke-opacity: 1;"/></defs><use href="#a" clip-path="url('#b')"/></g></g></g><g data-testid="Path"><path d="M0 1785v150h2850v-150H0Zm0 449v150h2850v-150H0Z" style="fill: rgb(0, 0, 0); fill-opacity: 1;" class="fills"/><g class="strokes"><g class="inner-stroke-shape"><defs><clipPath id="d"><use href="#c"/></clipPath><path d="M0 1785v150h2850v-150H0Zm0 449v150h2850v-150H0Z" id="c" style="fill: none; stroke-width: 4; stroke: rgb(0, 0, 0); stroke-opacity: 1;"/></defs><use href="#c" clip-path="url('#d')"/></g></g></g></g></svg>