<svg width="2847.322" xmlns="http://www.w3.org/2000/svg" height="2587.771" viewBox="-385 -486.162 2847.322 2587.771" fill="none"><g data-testid="Path"><path d="M-385 475v125h117c655-8 194-862 593-953 90 6 253 211 412 564 330 701 711 1814 1083 1883 48 8 75.719 8.359 118 7 25.827-.966 47-1 84-1 254-41 330-301 393.057-608.452C2502 941 2441.5-192.5 2446-272c-8.5 0-93 1-124.5 0 .5 342 17.527 970.522 8.5 1188-22 530-107 985-393 1054C1401 1844 983-65 501-450c-55.396-44.248-128.716-34.834-180-36C69.375-491.719 7-346-1-38c-6.731 259.146-40.625 520.328-384 513Zm0 0" style="fill: rgb(0, 0, 0); fill-opacity: 1;" class="fills"/><g class="strokes"><g class="inner-stroke-shape"><defs><clipPath id="b"><use href="#a"/></clipPath><path d="M-385 475v125h117c655-8 194-862 593-953 90 6 253 211 412 564 330 701 711 1814 1083 1883 48 8 75.719 8.359 118 7 25.827-.966 47-1 84-1 254-41 330-301 393.057-608.452C2502 941 2441.5-192.5 2446-272c-8.5 0-93 1-124.5 0 .5 342 17.527 970.522 8.5 1188-22 530-107 985-393 1054C1401 1844 983-65 501-450c-55.396-44.248-128.716-34.834-180-36C69.375-491.719 7-346-1-38c-6.731 259.146-40.625 520.328-384 513Zm0 0" id="a" style="fill: none; stroke-width: 4; stroke: rgb(0, 0, 0); stroke-opacity: 1;"/></defs><use href="#a" clip-path="url('#b')"/></g></g></g></svg>