<svg width="2829.725" xmlns="http://www.w3.org/2000/svg" height="2830" fill="none"><g data-testid="Group"><g data-testid="Path"><path d="M0 2830h124s1181-1245 2104-1287c455 54 468 343 468 343s-17 489-880 510c1 46 0 124 0 124h92c743 8 923-402 920-563 0-50.657 3.882-86.164 0-132-26-307-291-408-608-408C1253 1374 0 2707 0 2707v123ZM405 758c-1.417 222.455 199 346 324 340 161 6 356-127 348-345 3-144-125-329-335-329-219 6-336 177-337 334Zm333-486c309-3 489 267 492 481-3.08 335.042-269 498-501 498-199-8-460-160-479-489 14-280 210-474 488-490Z" style="fill: rgb(0, 0, 0); fill-opacity: 1;" class="fills"/><g class="strokes"><g class="inner-stroke-shape"><defs><clipPath id="b"><use href="#a"/></clipPath><path d="M0 2830h124s1181-1245 2104-1287c455 54 468 343 468 343s-17 489-880 510c1 46 0 124 0 124h92c743 8 923-402 920-563 0-50.657 3.882-86.164 0-132-26-307-291-408-608-408C1253 1374 0 2707 0 2707v123ZM405 758c-1.417 222.455 199 346 324 340 161 6 356-127 348-345 3-144-125-329-335-329-219 6-336 177-337 334Zm333-486c309-3 489 267 492 481-3.08 335.042-269 498-501 498-199-8-460-160-479-489 14-280 210-474 488-490Z" id="a" style="fill: none; stroke-width: 4; stroke: rgb(0, 0, 0); stroke-opacity: 1;"/></defs><use href="#a" clip-path="url('#b')"/></g></g></g><g data-testid="Path"><path d="M0 0v124s1245 1181 1287 2104c-54 455-343 468-343 468s-489-17-510-880c-46 1-124 0-124 0v92c-8 743 402 923 563 920 50.657 0 86.164 3.882 132 0 307-26 408-291 408-608C1456 1253 123 0 123 0H0Zm2072 405c-222.455-1.417-346 199-340 324-6 161 127 356 345 348 144 3 329-125 329-335-6-219-177-336-334-337Zm486 333c3 309-267 489-481 492-335.042-3.08-498-269-498-501 8-199 160-460 489-479 280 14 474 210 490 488Z" style="fill: rgb(0, 0, 0); fill-opacity: 1;" class="fills"/><g class="strokes"><g class="inner-stroke-shape"><defs><clipPath id="d"><use href="#c"/></clipPath><path d="M0 0v124s1245 1181 1287 2104c-54 455-343 468-343 468s-489-17-510-880c-46 1-124 0-124 0v92c-8 743 402 923 563 920 50.657 0 86.164 3.882 132 0 307-26 408-291 408-608C1456 1253 123 0 123 0H0Zm2072 405c-222.455-1.417-346 199-340 324-6 161 127 356 345 348 144 3 329-125 329-335-6-219-177-336-334-337Zm486 333c3 309-267 489-481 492-335.042-3.08-498-269-498-501 8-199 160-460 489-479 280 14 474 210 490 488Z" id="c" style="fill: none; stroke-width: 4; stroke: rgb(0, 0, 0); stroke-opacity: 1;"/></defs><use href="#c" clip-path="url('#d')"/></g></g></g></g></svg>