<svg width="2829.725" xmlns="http://www.w3.org/2000/svg" height="2558" viewBox="-389 -459 2829.725 2558" fill="none"><g data-testid="Path"><path d="M-389 2099h124S916 854 1839 812c455 54 468 343 468 343s-17 489-880 510c1 46 0 124 0 124h92c743 8 923-402 920-563 0-50.657 3.882-86.164 0-132-26-307-291-408-608-408C864 643-389 1976-389 1976v123ZM16 27c-1.417 222.455 199 346 324 340 161 6 356-127 348-345 3-144-125-329-335-329C134-301 17-130 16 27Zm333-486c309-3 489 267 492 481-3.08 335.042-269 498-501 498-199-8-460-160-479-489 14-280 210-474 488-490Z" style="fill: rgb(0, 0, 0); fill-opacity: 1;" class="fills"/><g class="strokes"><g class="inner-stroke-shape"><defs><clipPath id="b"><use href="#a"/></clipPath><path d="M-389 2099h124S916 854 1839 812c455 54 468 343 468 343s-17 489-880 510c1 46 0 124 0 124h92c743 8 923-402 920-563 0-50.657 3.882-86.164 0-132-26-307-291-408-608-408C864 643-389 1976-389 1976v123ZM16 27c-1.417 222.455 199 346 324 340 161 6 356-127 348-345 3-144-125-329-335-329C134-301 17-130 16 27Zm333-486c309-3 489 267 492 481-3.08 335.042-269 498-501 498-199-8-460-160-479-489 14-280 210-474 488-490Z" id="a" style="fill: none; stroke-width: 4; stroke: rgb(0, 0, 0); stroke-opacity: 1;"/></defs><use href="#a" clip-path="url('#b')"/></g></g></g></svg>