<svg width="2842.527" xmlns="http://www.w3.org/2000/svg" height="2839.15" fill="none"><g data-testid="Group"><g data-testid="Path"><path d="M2842.527 125.646v-125s-121.826-1.983-125 1c-406.61 382.18-539.344 598.983-541 975-2 454 266.195 882.477 541 1844 .983 3.558 125 0 125 0v-122c-289-956-503.054-1325.516-531.271-1716.401-8.729-239.599 125.271-492.599 531.271-856.599Zm-1358 1238c-81 1-122-1-122-1v124c108 230 144 429 144 542-22 409-308.875 676-587 676-549-68-826-788-775-1679v-110h-125c-57 1024 177 1899 901 1923 516 17 719-399 713-807 6-258-64.235-512.531-149-668Z" style="fill: rgb(0, 0, 0); fill-opacity: 1;" class="fills"/><g class="strokes"><g class="inner-stroke-shape"><defs><clipPath id="b"><use href="#a"/></clipPath><path d="M2842.527 125.646v-125s-121.826-1.983-125 1c-406.61 382.18-539.344 598.983-541 975-2 454 266.195 882.477 541 1844 .983 3.558 125 0 125 0v-122c-289-956-503.054-1325.516-531.271-1716.401-8.729-239.599 125.271-492.599 531.271-856.599Zm-1358 1238c-81 1-122-1-122-1v124c108 230 144 429 144 542-22 409-308.875 676-587 676-549-68-826-788-775-1679v-110h-125c-57 1024 177 1899 901 1923 516 17 719-399 713-807 6-258-64.235-512.531-149-668Z" id="a" style="fill: none; stroke-width: 4; stroke: rgb(0, 0, 0); stroke-opacity: 1;"/></defs><use href="#a" clip-path="url('#b')"/></g></g></g><g data-testid="Path"><path d="M125.646 4.977h-125s-1.983 121.826 1 125c382.18 406.61 598.983 539.344 975 541 454 2 882.477-266.195 1844-541 3.558-.983 0-125 0-125h-122c-956 289-1325.516 503.054-1716.401 531.271-239.599 8.729-492.599-125.271-856.599-531.271Zm1238 1358c1 81-1 122-1 122h124c230-108 429-144 542-144 409 22 676 308.875 676 587-68 549-788 826-1679 775h-110v125c1024 57 1899-177 1923-901 17-516-399-719-807-713-258-6-512.531 64.235-668 149Z" style="fill: rgb(0, 0, 0); fill-opacity: 1;" class="fills"/><g class="strokes"><g class="inner-stroke-shape"><defs><clipPath id="d"><use href="#c"/></clipPath><path d="M125.646 4.977h-125s-1.983 121.826 1 125c382.18 406.61 598.983 539.344 975 541 454 2 882.477-266.195 1844-541 3.558-.983 0-125 0-125h-122c-956 289-1325.516 503.054-1716.401 531.271-239.599 8.729-492.599-125.271-856.599-531.271Zm1238 1358c1 81-1 122-1 122h124c230-108 429-144 542-144 409 22 676 308.875 676 587-68 549-788 826-1679 775h-110v125c1024 57 1899-177 1923-901 17-516-399-719-807-713-258-6-512.531 64.235-668 149Z" id="c" style="fill: none; stroke-width: 4; stroke: rgb(0, 0, 0); stroke-opacity: 1;"/></defs><use href="#c" clip-path="url('#d')"/></g></g></g></g></svg>